# xmcd
# 
# Track frame offsets:
#     150
#     22577
#     42125
#     66903
#     89345
# 
# Disc length: 1450
# 
# Revision: 0
# Processed by: cddbd v1.5.2PL0 Copyright (c) Steve Scherf et al.
# Submitted via: BonkEnc v1.0.8
# 
DISCID=3105a805
DTITLE=AAA - Paradise
DYEAR=2011
DGENRE=JPop
TTITLE0=Paradise
TTITLE1=Endless Fighters
TTITLE2=Departures
TTITLE3=Paradise(instr)
TTITLE4=Endress Fighters(instr)
EXTD=
EXTT0=
EXTT1=
EXTT2=
EXTT3=
EXTT4=
PLAYORDER=
